<?xml version="1.0" encoding="UTF-8"?>
<svg id="Layer_1" data-name="Layer 1" xmlns="http://www.w3.org/2000/svg" viewBox="0 0 1080 1080">
  <defs>
    <style>
      .cls-1 {
        fill: #ff5f2d;
      }
    </style>
  </defs>
  <g>
    <path class="cls-1" d="M331.25,580.91h46.53v6.78h-38.36v15.24h37.71v6.2h-37.71v16.05h38.36v6.78h-46.53v-51.06Z"/>
    <path class="cls-1" d="M393.59,580.91h10.06l25.09,48.72,25.02-48.72h10.06l-26.91,51.06h-16.41l-26.91-51.06Z"/>
    <path class="cls-1" d="M474.33,606.43c0-16.05,12.33-26.69,32.24-26.69s32.31,10.65,32.31,26.69-12.33,26.69-32.31,26.69-32.24-10.65-32.24-26.69ZM530.71,606.43c0-12.32-9.7-19.91-24.14-19.91s-24.07,7.59-24.07,19.91,9.7,19.91,24.07,19.91,24.14-7.66,24.14-19.91Z"/>
    <path class="cls-1" d="M558.08,580.91h8.17v44.27h37.27v6.78h-45.44v-51.06Z"/>
    <path class="cls-1" d="M616.17,580.91h10.06l25.09,48.72,25.02-48.72h10.06l-26.91,51.06h-16.41l-26.91-51.06Z"/>
    <path class="cls-1" d="M702.22,580.91h46.53v6.78h-38.36v15.24h37.71v6.2h-37.71v16.05h38.36v6.78h-46.53v-51.06Z"/>
  </g>
  <g>
    <path class="cls-1" d="M595.73,469.95v-.09h0s-22.54-22.39-22.54-22.39c0-.13-.1-.23-.23-.23h0s0,0,0,0h-21.53c-.13,0-.23.1-.23.23v22.16c0,.13.1.23.23.23h21.35c.13,0,.23.1.23.23v50.25h0v.12h-18.72c-1.76,0-3.18-1.42-3.18-3.18v-20.96c0-.13-.1-.23-.23-.23h-22.12c-.13,0-.23.1-.23.23v24.04c0,.06.02.12.07.17l22.52,22.52h21.99c.06,0,.12-.02.17-.07l22.46-22.46s.07-.1.07-.17v-50.55l-.06.13Z"/>
    <path class="cls-1" d="M528.51,542.79v-22.33h-21.59v-50.37c0-.13.11-.23.24-.23h21.35c.11,0,.23-.11.23-.24v-22.15c0-.13-.11-.23-.23-.23h-21.53c-.13,0-.24.1-.24.23h0s-22.44,22.4-22.44,22.4h-.08v.08l-.07-.13v50.55c0,.07.03.11.07.16l22.32,22.32.05.21h21.92s.02,0,.02,0l-.02-.27Z"/>
  </g>
</svg>